<?xml version="1.0"?>
<svg xmlns="http://www.w3.org/2000/svg" xmlns:xlink="http://www.w3.org/1999/xlink" version="1.1" id="Capa_1" x="0px" y="0px" width="512px" height="512px" viewBox="0 0 32.003 32.003" style="enable-background:new 0 0 32.003 32.003;" xml:space="preserve"><g><g>
	<path d="M25.525,21.952c0.557-0.039,5.69-0.181,6.277-2.964c0.047-0.22-0.078-0.784-0.369-0.429   c-3.478,2.087-6.623-0.843-6.623-0.843s5.513-5.103,4.645-9.898c-0.868-4.797-8.266-9.031-10.46-7.501   c3.368,1.837,5.276,6.276,5.276,6.276s-2.571,0.459-5.276-1.99c-0.97,5.459,5.575,5.817,6.686,5.97   c0.735,0.101-1.55,4.247-2.357,5.047c-0.096,0.094-0.145,0.194-0.162,0.299c-0.965-0.559-3.94-2.138-7.158-2.138   c-3.217,0-6.196,1.579-7.16,2.138c-0.019-0.104-0.067-0.205-0.161-0.299c-0.811-0.8-3.096-4.946-2.359-5.047   c1.109-0.152,7.653-0.511,6.684-5.97c-2.703,2.449-5.275,1.99-5.275,1.99s1.908-4.438,5.275-6.276   c-2.193-1.53-9.592,2.704-10.459,7.501c-0.867,4.796,4.643,9.898,4.643,9.898s-3.146,2.93-6.622,0.843   c-0.291-0.355-0.415,0.209-0.37,0.429c0.586,2.783,5.723,2.925,6.278,2.964c0.6,0.043,1.479,0.971,1.173,1.379   c-0.287,0.383-5.147,0.315-7.141-0.492c-0.134-0.055-0.461-0.067-0.161,0.318c1.239,1.713,7.706,1.774,7.659,2.01   c-0.048,0.24-4.297,4.365-2.035,6.681c0.143,0.146,0.582,0.312,0.66-0.134c1.117-3.666,3.152-5.989,4.028-6.088   c0.793-0.088,5.273,0.231,5.343,0.229c0.068,0.005,0.12-0.002,0.122-0.009c0.939-0.067,4.428-0.308,5.221-0.22   c0.875,0.099,2.91,2.422,4.025,6.088c0.08,0.443,0.521,0.277,0.661,0.134c2.263-2.312-1.987-6.438-2.036-6.681   c-0.047-0.233,6.42-0.297,7.66-2.01c0.3-0.388-0.027-0.373-0.16-0.318c-1.994,0.81-6.854,0.875-7.144,0.492   C24.046,22.922,24.926,21.995,25.525,21.952z" data-original="#000000" class="active-path" data-old_color="#000000" fill="#FFFFFF"/>
</g></g> </svg>
